<svg xmlns="http://www.w3.org/2000/svg" viewBox="0 0 600 660" role="img" aria-labelledby="title desc"><title id="title">跨文化聆聽的起點</title><desc id="desc">名稱：認識樂器自己的名字；場合：理解聲音出現的情境；語句：把技巧連迴音樂習慣；署名：保留人物、作品與來源</desc><defs><marker id="arrow" markerWidth="8" markerHeight="8" refX="7" refY="4" orient="auto"><path d="M1 1 L7 4 L1 7" fill="none" stroke="#987144" stroke-width="1.3"/></marker></defs><rect width="600" height="660" fill="#f9f5eb"/><path d="M38 52 H562" stroke="#b59a72"/><text x="300" y="85" fill="#80613c" font-size="18" text-anchor="middle" font-family="Microsoft JhengHei,Noto Sans TC,sans-serif"><tspan x="300" dy="0">FLUTE ATLAS · 078</tspan></text><text x="300" y="133" fill="#243e32" font-size="26" text-anchor="middle" font-family="Microsoft JhengHei,Noto Sans TC,sans-serif"><tspan x="300" dy="0">跨文化聆聽的起點</tspan></text><rect x="57" y="176" width="214" height="155" rx="4" fill="#243e32"/><circle cx="164" cy="172" r="18" fill="#a7804a"/><text x="164" y="178" fill="#fff" font-size="20" text-anchor="middle" font-family="Microsoft JhengHei,Noto Sans TC,sans-serif"><tspan x="164" dy="0">1</tspan></text><text x="164" y="229" fill="#fff" font-size="28" text-anchor="middle" font-family="Microsoft JhengHei,Noto Sans TC,sans-serif"><tspan x="164" dy="0">名稱</tspan></text><text x="164" y="273" fill="#f3ead8" font-size="22" text-anchor="middle" font-family="Microsoft JhengHei,Noto Sans TC,sans-serif"><tspan x="164" dy="0">認識樂器自己的名字</tspan></text><rect x="329" y="176" width="214" height="155" rx="4" fill="#ede8db"/><circle cx="436" cy="172" r="18" fill="#a7804a"/><text x="436" y="178" fill="#fff" font-size="20" text-anchor="middle" font-family="Microsoft JhengHei,Noto Sans TC,sans-serif"><tspan x="436" dy="0">2</tspan></text><text x="436" y="229" fill="#243e32" font-size="28" text-anchor="middle" font-family="Microsoft JhengHei,Noto Sans TC,sans-serif"><tspan x="436" dy="0">場合</tspan></text><text x="436" y="273" fill="#4b534e" font-size="22" text-anchor="middle" font-family="Microsoft JhengHei,Noto Sans TC,sans-serif"><tspan x="436" dy="0">理解聲音出現的情境</tspan></text><rect x="57" y="410" width="214" height="155" rx="4" fill="#ede8db"/><circle cx="164" cy="406" r="18" fill="#a7804a"/><text x="164" y="412" fill="#fff" font-size="20" text-anchor="middle" font-family="Microsoft JhengHei,Noto Sans TC,sans-serif"><tspan x="164" dy="0">3</tspan></text><text x="164" y="463" fill="#243e32" font-size="28" text-anchor="middle" font-family="Microsoft JhengHei,Noto Sans TC,sans-serif"><tspan x="164" dy="0">語句</tspan></text><text x="164" y="507" fill="#4b534e" font-size="22" text-anchor="middle" font-family="Microsoft JhengHei,Noto Sans TC,sans-serif"><tspan x="164" dy="0">把技巧連迴音樂習慣</tspan></text><rect x="329" y="410" width="214" height="155" rx="4" fill="#ede8db"/><circle cx="436" cy="406" r="18" fill="#a7804a"/><text x="436" y="412" fill="#fff" font-size="20" text-anchor="middle" font-family="Microsoft JhengHei,Noto Sans TC,sans-serif"><tspan x="436" dy="0">4</tspan></text><text x="436" y="463" fill="#243e32" font-size="28" text-anchor="middle" font-family="Microsoft JhengHei,Noto Sans TC,sans-serif"><tspan x="436" dy="0">署名</tspan></text><text x="436" y="507" fill="#4b534e" font-size="22" text-anchor="middle" font-family="Microsoft JhengHei,Noto Sans TC,sans-serif"><tspan x="436" dy="0">保留人物、作品與來</tspan><tspan x="436" dy="33">源</tspan></text><path d="M38 605 H562" stroke="#b59a72"/><text x="300" y="632" fill="#5c655e" font-size="18" text-anchor="middle" font-family="Microsoft JhengHei,Noto Sans TC,sans-serif"><tspan x="300" dy="0">長笛誌 · 練習與閱讀圖解</tspan></text></svg>